<mxfile host="Electron" agent="Mozilla/5.0 (Windows NT 10.0; Win64; x64) AppleWebKit/537.36 (KHTML, like Gecko) draw.io/28.1.2 Chrome/138.0.7204.243 Electron/37.4.0 Safari/537.36" version="28.1.2" pages="12">
  <diagram name="1 create user" id="H0tHWfolzaqEnzwDcLSp">
    <mxGraphModel dx="1042" dy="626" grid="1" gridSize="10" guides="1" tooltips="1" connect="1" arrows="1" fold="1" page="1" pageScale="1" pageWidth="827" pageHeight="1169" math="0" shadow="0">
      <root>
        <mxCell id="aL_4ws_c2ZyIselP_ZK2-0" />
        <mxCell id="aL_4ws_c2ZyIselP_ZK2-1" parent="aL_4ws_c2ZyIselP_ZK2-0" />
        <mxCell id="aL_4ws_c2ZyIselP_ZK2-2" value="" style="edgeStyle=orthogonalEdgeStyle;rounded=0;orthogonalLoop=1;jettySize=auto;html=1;" edge="1" parent="aL_4ws_c2ZyIselP_ZK2-1" source="aL_4ws_c2ZyIselP_ZK2-3" target="aL_4ws_c2ZyIselP_ZK2-6">
          <mxGeometry relative="1" as="geometry" />
        </mxCell>
        <mxCell id="aL_4ws_c2ZyIselP_ZK2-3" value="start" style="rounded=1;whiteSpace=wrap;html=1;arcSize=50;" vertex="1" parent="aL_4ws_c2ZyIselP_ZK2-1">
          <mxGeometry x="20" y="30" width="120" height="60" as="geometry" />
        </mxCell>
        <mxCell id="aL_4ws_c2ZyIselP_ZK2-4" value="end" style="rounded=1;whiteSpace=wrap;html=1;arcSize=50;" vertex="1" parent="aL_4ws_c2ZyIselP_ZK2-1">
          <mxGeometry x="20" y="170" width="120" height="60" as="geometry" />
        </mxCell>
        <mxCell id="aL_4ws_c2ZyIselP_ZK2-5" value="" style="edgeStyle=orthogonalEdgeStyle;rounded=0;orthogonalLoop=1;jettySize=auto;html=1;" edge="1" parent="aL_4ws_c2ZyIselP_ZK2-1" source="aL_4ws_c2ZyIselP_ZK2-6" target="aL_4ws_c2ZyIselP_ZK2-8">
          <mxGeometry relative="1" as="geometry" />
        </mxCell>
        <mxCell id="aL_4ws_c2ZyIselP_ZK2-6" value="press create user button" style="whiteSpace=wrap;html=1;rounded=0;arcSize=50;" vertex="1" parent="aL_4ws_c2ZyIselP_ZK2-1">
          <mxGeometry x="220" y="30" width="120" height="60" as="geometry" />
        </mxCell>
        <mxCell id="aL_4ws_c2ZyIselP_ZK2-7" value="" style="edgeStyle=orthogonalEdgeStyle;rounded=0;orthogonalLoop=1;jettySize=auto;html=1;" edge="1" parent="aL_4ws_c2ZyIselP_ZK2-1" source="aL_4ws_c2ZyIselP_ZK2-8" target="aL_4ws_c2ZyIselP_ZK2-10">
          <mxGeometry relative="1" as="geometry" />
        </mxCell>
        <mxCell id="aL_4ws_c2ZyIselP_ZK2-8" value="input user detail" style="whiteSpace=wrap;html=1;rounded=0;arcSize=50;" vertex="1" parent="aL_4ws_c2ZyIselP_ZK2-1">
          <mxGeometry x="420" y="30" width="120" height="60" as="geometry" />
        </mxCell>
        <mxCell id="aL_4ws_c2ZyIselP_ZK2-9" value="" style="edgeStyle=orthogonalEdgeStyle;rounded=0;orthogonalLoop=1;jettySize=auto;html=1;" edge="1" parent="aL_4ws_c2ZyIselP_ZK2-1" source="aL_4ws_c2ZyIselP_ZK2-10" target="aL_4ws_c2ZyIselP_ZK2-12">
          <mxGeometry relative="1" as="geometry" />
        </mxCell>
        <mxCell id="aL_4ws_c2ZyIselP_ZK2-10" value="check auth" style="shape=process;whiteSpace=wrap;html=1;backgroundOutline=1;" vertex="1" parent="aL_4ws_c2ZyIselP_ZK2-1">
          <mxGeometry x="620" y="30" width="120" height="60" as="geometry" />
        </mxCell>
        <mxCell id="aL_4ws_c2ZyIselP_ZK2-11" value="" style="edgeStyle=orthogonalEdgeStyle;rounded=0;orthogonalLoop=1;jettySize=auto;html=1;" edge="1" parent="aL_4ws_c2ZyIselP_ZK2-1" source="aL_4ws_c2ZyIselP_ZK2-12" target="aL_4ws_c2ZyIselP_ZK2-15">
          <mxGeometry relative="1" as="geometry" />
        </mxCell>
        <mxCell id="aL_4ws_c2ZyIselP_ZK2-12" value="use access token to create user" style="whiteSpace=wrap;html=1;" vertex="1" parent="aL_4ws_c2ZyIselP_ZK2-1">
          <mxGeometry x="620" y="170" width="120" height="60" as="geometry" />
        </mxCell>
        <mxCell id="aL_4ws_c2ZyIselP_ZK2-13" value="yes" style="edgeStyle=orthogonalEdgeStyle;rounded=0;orthogonalLoop=1;jettySize=auto;html=1;" edge="1" parent="aL_4ws_c2ZyIselP_ZK2-1" source="aL_4ws_c2ZyIselP_ZK2-15" target="aL_4ws_c2ZyIselP_ZK2-17">
          <mxGeometry relative="1" as="geometry" />
        </mxCell>
        <mxCell id="aL_4ws_c2ZyIselP_ZK2-14" value="no" style="edgeStyle=orthogonalEdgeStyle;rounded=0;orthogonalLoop=1;jettySize=auto;html=1;" edge="1" parent="aL_4ws_c2ZyIselP_ZK2-1" source="aL_4ws_c2ZyIselP_ZK2-15" target="aL_4ws_c2ZyIselP_ZK2-20">
          <mxGeometry relative="1" as="geometry">
            <mxPoint x="480" y="310" as="targetPoint" />
          </mxGeometry>
        </mxCell>
        <mxCell id="aL_4ws_c2ZyIselP_ZK2-15" value="success" style="rhombus;whiteSpace=wrap;html=1;" vertex="1" parent="aL_4ws_c2ZyIselP_ZK2-1">
          <mxGeometry x="440" y="160" width="80" height="80" as="geometry" />
        </mxCell>
        <mxCell id="aL_4ws_c2ZyIselP_ZK2-16" style="edgeStyle=orthogonalEdgeStyle;rounded=0;orthogonalLoop=1;jettySize=auto;html=1;" edge="1" parent="aL_4ws_c2ZyIselP_ZK2-1" source="aL_4ws_c2ZyIselP_ZK2-17" target="aL_4ws_c2ZyIselP_ZK2-4">
          <mxGeometry relative="1" as="geometry" />
        </mxCell>
        <mxCell id="aL_4ws_c2ZyIselP_ZK2-17" value="show users" style="rounded=0;whiteSpace=wrap;html=1;" vertex="1" parent="aL_4ws_c2ZyIselP_ZK2-1">
          <mxGeometry x="220" y="170" width="120" height="60" as="geometry" />
        </mxCell>
        <mxCell id="aL_4ws_c2ZyIselP_ZK2-18" value="no" style="edgeStyle=orthogonalEdgeStyle;rounded=0;orthogonalLoop=1;jettySize=auto;html=1;" edge="1" parent="aL_4ws_c2ZyIselP_ZK2-1" source="aL_4ws_c2ZyIselP_ZK2-20" target="aL_4ws_c2ZyIselP_ZK2-24">
          <mxGeometry relative="1" as="geometry">
            <mxPoint x="320" y="350" as="targetPoint" />
          </mxGeometry>
        </mxCell>
        <mxCell id="aL_4ws_c2ZyIselP_ZK2-19" value="yes" style="edgeStyle=orthogonalEdgeStyle;rounded=0;orthogonalLoop=1;jettySize=auto;html=1;" edge="1" parent="aL_4ws_c2ZyIselP_ZK2-1" source="aL_4ws_c2ZyIselP_ZK2-20" target="aL_4ws_c2ZyIselP_ZK2-22">
          <mxGeometry relative="1" as="geometry">
            <mxPoint x="480" y="460" as="targetPoint" />
          </mxGeometry>
        </mxCell>
        <mxCell id="aL_4ws_c2ZyIselP_ZK2-20" value="&lt;font style=&quot;font-size: 10px;&quot;&gt;is unauthorize&lt;/font&gt;" style="rhombus;whiteSpace=wrap;html=1;" vertex="1" parent="aL_4ws_c2ZyIselP_ZK2-1">
          <mxGeometry x="440" y="310" width="80" height="80" as="geometry" />
        </mxCell>
        <mxCell id="aL_4ws_c2ZyIselP_ZK2-21" style="edgeStyle=orthogonalEdgeStyle;rounded=0;orthogonalLoop=1;jettySize=auto;html=1;" edge="1" parent="aL_4ws_c2ZyIselP_ZK2-1" source="aL_4ws_c2ZyIselP_ZK2-22" target="aL_4ws_c2ZyIselP_ZK2-4">
          <mxGeometry relative="1" as="geometry">
            <Array as="points">
              <mxPoint x="680" y="420" />
              <mxPoint x="80" y="420" />
            </Array>
          </mxGeometry>
        </mxCell>
        <mxCell id="aL_4ws_c2ZyIselP_ZK2-22" value="logout" style="shape=process;whiteSpace=wrap;html=1;backgroundOutline=1;" vertex="1" parent="aL_4ws_c2ZyIselP_ZK2-1">
          <mxGeometry x="620" y="320" width="120" height="60" as="geometry" />
        </mxCell>
        <mxCell id="aL_4ws_c2ZyIselP_ZK2-23" style="edgeStyle=orthogonalEdgeStyle;rounded=0;orthogonalLoop=1;jettySize=auto;html=1;" edge="1" parent="aL_4ws_c2ZyIselP_ZK2-1" source="aL_4ws_c2ZyIselP_ZK2-24" target="aL_4ws_c2ZyIselP_ZK2-4">
          <mxGeometry relative="1" as="geometry" />
        </mxCell>
        <mxCell id="aL_4ws_c2ZyIselP_ZK2-24" value="show error" style="rounded=0;whiteSpace=wrap;html=1;" vertex="1" parent="aL_4ws_c2ZyIselP_ZK2-1">
          <mxGeometry x="220" y="320" width="120" height="60" as="geometry" />
        </mxCell>
      </root>
    </mxGraphModel>
  </diagram>
  <diagram name="2 read users" id="U8ignKrqsdTms8HRMMQN">
    <mxGraphModel dx="1042" dy="626" grid="1" gridSize="10" guides="1" tooltips="1" connect="1" arrows="1" fold="1" page="1" pageScale="1" pageWidth="827" pageHeight="1169" math="0" shadow="0">
      <root>
        <mxCell id="r-6lWoXWtS9nEmAQzNfl-0" />
        <mxCell id="r-6lWoXWtS9nEmAQzNfl-1" parent="r-6lWoXWtS9nEmAQzNfl-0" />
        <mxCell id="r-6lWoXWtS9nEmAQzNfl-2" value="" style="edgeStyle=orthogonalEdgeStyle;rounded=0;orthogonalLoop=1;jettySize=auto;html=1;" edge="1" parent="r-6lWoXWtS9nEmAQzNfl-1" source="r-6lWoXWtS9nEmAQzNfl-3" target="r-6lWoXWtS9nEmAQzNfl-6">
          <mxGeometry relative="1" as="geometry" />
        </mxCell>
        <mxCell id="r-6lWoXWtS9nEmAQzNfl-3" value="start" style="rounded=1;whiteSpace=wrap;html=1;arcSize=50;" vertex="1" parent="r-6lWoXWtS9nEmAQzNfl-1">
          <mxGeometry x="20" y="20" width="120" height="60" as="geometry" />
        </mxCell>
        <mxCell id="r-6lWoXWtS9nEmAQzNfl-4" value="end" style="rounded=1;whiteSpace=wrap;html=1;arcSize=50;" vertex="1" parent="r-6lWoXWtS9nEmAQzNfl-1">
          <mxGeometry x="20" y="160" width="120" height="60" as="geometry" />
        </mxCell>
        <mxCell id="r-6lWoXWtS9nEmAQzNfl-5" value="" style="edgeStyle=orthogonalEdgeStyle;rounded=0;orthogonalLoop=1;jettySize=auto;html=1;" edge="1" parent="r-6lWoXWtS9nEmAQzNfl-1" source="r-6lWoXWtS9nEmAQzNfl-6" target="r-6lWoXWtS9nEmAQzNfl-8">
          <mxGeometry relative="1" as="geometry" />
        </mxCell>
        <mxCell id="r-6lWoXWtS9nEmAQzNfl-6" value="check auth" style="shape=process;whiteSpace=wrap;html=1;backgroundOutline=1;" vertex="1" parent="r-6lWoXWtS9nEmAQzNfl-1">
          <mxGeometry x="200" y="20" width="120" height="60" as="geometry" />
        </mxCell>
        <mxCell id="r-6lWoXWtS9nEmAQzNfl-7" value="" style="edgeStyle=orthogonalEdgeStyle;rounded=0;orthogonalLoop=1;jettySize=auto;html=1;" edge="1" parent="r-6lWoXWtS9nEmAQzNfl-1" source="r-6lWoXWtS9nEmAQzNfl-8" target="r-6lWoXWtS9nEmAQzNfl-11">
          <mxGeometry relative="1" as="geometry" />
        </mxCell>
        <mxCell id="r-6lWoXWtS9nEmAQzNfl-8" value="use access token to get users" style="whiteSpace=wrap;html=1;" vertex="1" parent="r-6lWoXWtS9nEmAQzNfl-1">
          <mxGeometry x="400" y="20" width="120" height="60" as="geometry" />
        </mxCell>
        <mxCell id="r-6lWoXWtS9nEmAQzNfl-9" value="no" style="edgeStyle=orthogonalEdgeStyle;rounded=0;orthogonalLoop=1;jettySize=auto;html=1;" edge="1" parent="r-6lWoXWtS9nEmAQzNfl-1" source="r-6lWoXWtS9nEmAQzNfl-11" target="r-6lWoXWtS9nEmAQzNfl-13">
          <mxGeometry relative="1" as="geometry" />
        </mxCell>
        <mxCell id="r-6lWoXWtS9nEmAQzNfl-10" value="yes" style="edgeStyle=orthogonalEdgeStyle;rounded=0;orthogonalLoop=1;jettySize=auto;html=1;" edge="1" parent="r-6lWoXWtS9nEmAQzNfl-1" source="r-6lWoXWtS9nEmAQzNfl-11" target="r-6lWoXWtS9nEmAQzNfl-15">
          <mxGeometry relative="1" as="geometry" />
        </mxCell>
        <mxCell id="r-6lWoXWtS9nEmAQzNfl-11" value="is success" style="rhombus;whiteSpace=wrap;html=1;" vertex="1" parent="r-6lWoXWtS9nEmAQzNfl-1">
          <mxGeometry x="420" y="150" width="80" height="80" as="geometry" />
        </mxCell>
        <mxCell id="r-6lWoXWtS9nEmAQzNfl-12" style="edgeStyle=orthogonalEdgeStyle;rounded=0;orthogonalLoop=1;jettySize=auto;html=1;" edge="1" parent="r-6lWoXWtS9nEmAQzNfl-1" source="r-6lWoXWtS9nEmAQzNfl-13" target="r-6lWoXWtS9nEmAQzNfl-4">
          <mxGeometry relative="1" as="geometry">
            <Array as="points">
              <mxPoint x="620" y="260" />
              <mxPoint x="80" y="260" />
            </Array>
          </mxGeometry>
        </mxCell>
        <mxCell id="r-6lWoXWtS9nEmAQzNfl-13" value="show error" style="whiteSpace=wrap;html=1;" vertex="1" parent="r-6lWoXWtS9nEmAQzNfl-1">
          <mxGeometry x="560" y="160" width="120" height="60" as="geometry" />
        </mxCell>
        <mxCell id="r-6lWoXWtS9nEmAQzNfl-14" style="edgeStyle=orthogonalEdgeStyle;rounded=0;orthogonalLoop=1;jettySize=auto;html=1;" edge="1" parent="r-6lWoXWtS9nEmAQzNfl-1" source="r-6lWoXWtS9nEmAQzNfl-15" target="r-6lWoXWtS9nEmAQzNfl-4">
          <mxGeometry relative="1" as="geometry" />
        </mxCell>
        <mxCell id="r-6lWoXWtS9nEmAQzNfl-15" value="show users" style="whiteSpace=wrap;html=1;" vertex="1" parent="r-6lWoXWtS9nEmAQzNfl-1">
          <mxGeometry x="200" y="160" width="120" height="60" as="geometry" />
        </mxCell>
      </root>
    </mxGraphModel>
  </diagram>
  <diagram name="3 update user" id="9eSio8I_mi5X9qWNt8U2">
    <mxGraphModel dx="1042" dy="626" grid="1" gridSize="10" guides="1" tooltips="1" connect="1" arrows="1" fold="1" page="1" pageScale="1" pageWidth="827" pageHeight="1169" math="0" shadow="0">
      <root>
        <mxCell id="oA4CC5gpm5icfr5hwg13-0" />
        <mxCell id="oA4CC5gpm5icfr5hwg13-1" parent="oA4CC5gpm5icfr5hwg13-0" />
        <mxCell id="oA4CC5gpm5icfr5hwg13-2" value="" style="edgeStyle=orthogonalEdgeStyle;rounded=0;orthogonalLoop=1;jettySize=auto;html=1;" edge="1" parent="oA4CC5gpm5icfr5hwg13-1" source="oA4CC5gpm5icfr5hwg13-3" target="oA4CC5gpm5icfr5hwg13-6">
          <mxGeometry relative="1" as="geometry" />
        </mxCell>
        <mxCell id="oA4CC5gpm5icfr5hwg13-3" value="start" style="rounded=1;whiteSpace=wrap;html=1;arcSize=50;" vertex="1" parent="oA4CC5gpm5icfr5hwg13-1">
          <mxGeometry x="20" y="30" width="120" height="60" as="geometry" />
        </mxCell>
        <mxCell id="oA4CC5gpm5icfr5hwg13-4" value="end" style="rounded=1;whiteSpace=wrap;html=1;arcSize=50;" vertex="1" parent="oA4CC5gpm5icfr5hwg13-1">
          <mxGeometry x="20" y="170" width="120" height="60" as="geometry" />
        </mxCell>
        <mxCell id="oA4CC5gpm5icfr5hwg13-5" value="" style="edgeStyle=orthogonalEdgeStyle;rounded=0;orthogonalLoop=1;jettySize=auto;html=1;" edge="1" parent="oA4CC5gpm5icfr5hwg13-1" source="oA4CC5gpm5icfr5hwg13-6" target="oA4CC5gpm5icfr5hwg13-8">
          <mxGeometry relative="1" as="geometry" />
        </mxCell>
        <mxCell id="oA4CC5gpm5icfr5hwg13-6" value="press update user button" style="whiteSpace=wrap;html=1;rounded=0;arcSize=50;" vertex="1" parent="oA4CC5gpm5icfr5hwg13-1">
          <mxGeometry x="220" y="30" width="120" height="60" as="geometry" />
        </mxCell>
        <mxCell id="oA4CC5gpm5icfr5hwg13-7" value="" style="edgeStyle=orthogonalEdgeStyle;rounded=0;orthogonalLoop=1;jettySize=auto;html=1;" edge="1" parent="oA4CC5gpm5icfr5hwg13-1" source="oA4CC5gpm5icfr5hwg13-8" target="oA4CC5gpm5icfr5hwg13-10">
          <mxGeometry relative="1" as="geometry" />
        </mxCell>
        <mxCell id="oA4CC5gpm5icfr5hwg13-8" value="update user detail" style="whiteSpace=wrap;html=1;rounded=0;arcSize=50;" vertex="1" parent="oA4CC5gpm5icfr5hwg13-1">
          <mxGeometry x="420" y="30" width="120" height="60" as="geometry" />
        </mxCell>
        <mxCell id="oA4CC5gpm5icfr5hwg13-9" value="" style="edgeStyle=orthogonalEdgeStyle;rounded=0;orthogonalLoop=1;jettySize=auto;html=1;" edge="1" parent="oA4CC5gpm5icfr5hwg13-1" source="oA4CC5gpm5icfr5hwg13-10" target="oA4CC5gpm5icfr5hwg13-12">
          <mxGeometry relative="1" as="geometry" />
        </mxCell>
        <mxCell id="oA4CC5gpm5icfr5hwg13-10" value="check auth" style="shape=process;whiteSpace=wrap;html=1;backgroundOutline=1;" vertex="1" parent="oA4CC5gpm5icfr5hwg13-1">
          <mxGeometry x="620" y="30" width="120" height="60" as="geometry" />
        </mxCell>
        <mxCell id="oA4CC5gpm5icfr5hwg13-11" value="" style="edgeStyle=orthogonalEdgeStyle;rounded=0;orthogonalLoop=1;jettySize=auto;html=1;" edge="1" parent="oA4CC5gpm5icfr5hwg13-1" source="oA4CC5gpm5icfr5hwg13-12" target="oA4CC5gpm5icfr5hwg13-15">
          <mxGeometry relative="1" as="geometry" />
        </mxCell>
        <mxCell id="oA4CC5gpm5icfr5hwg13-12" value="use access token to update user" style="whiteSpace=wrap;html=1;" vertex="1" parent="oA4CC5gpm5icfr5hwg13-1">
          <mxGeometry x="620" y="170" width="120" height="60" as="geometry" />
        </mxCell>
        <mxCell id="oA4CC5gpm5icfr5hwg13-13" value="yes" style="edgeStyle=orthogonalEdgeStyle;rounded=0;orthogonalLoop=1;jettySize=auto;html=1;" edge="1" parent="oA4CC5gpm5icfr5hwg13-1" source="oA4CC5gpm5icfr5hwg13-15" target="oA4CC5gpm5icfr5hwg13-17">
          <mxGeometry relative="1" as="geometry" />
        </mxCell>
        <mxCell id="oA4CC5gpm5icfr5hwg13-14" value="no" style="edgeStyle=orthogonalEdgeStyle;rounded=0;orthogonalLoop=1;jettySize=auto;html=1;" edge="1" parent="oA4CC5gpm5icfr5hwg13-1" source="oA4CC5gpm5icfr5hwg13-15" target="oA4CC5gpm5icfr5hwg13-20">
          <mxGeometry relative="1" as="geometry">
            <mxPoint x="480" y="310" as="targetPoint" />
          </mxGeometry>
        </mxCell>
        <mxCell id="oA4CC5gpm5icfr5hwg13-15" value="success" style="rhombus;whiteSpace=wrap;html=1;" vertex="1" parent="oA4CC5gpm5icfr5hwg13-1">
          <mxGeometry x="440" y="160" width="80" height="80" as="geometry" />
        </mxCell>
        <mxCell id="oA4CC5gpm5icfr5hwg13-16" style="edgeStyle=orthogonalEdgeStyle;rounded=0;orthogonalLoop=1;jettySize=auto;html=1;" edge="1" parent="oA4CC5gpm5icfr5hwg13-1" source="oA4CC5gpm5icfr5hwg13-17" target="oA4CC5gpm5icfr5hwg13-4">
          <mxGeometry relative="1" as="geometry" />
        </mxCell>
        <mxCell id="oA4CC5gpm5icfr5hwg13-17" value="show users" style="rounded=0;whiteSpace=wrap;html=1;" vertex="1" parent="oA4CC5gpm5icfr5hwg13-1">
          <mxGeometry x="220" y="170" width="120" height="60" as="geometry" />
        </mxCell>
        <mxCell id="oA4CC5gpm5icfr5hwg13-18" value="no" style="edgeStyle=orthogonalEdgeStyle;rounded=0;orthogonalLoop=1;jettySize=auto;html=1;" edge="1" parent="oA4CC5gpm5icfr5hwg13-1" source="oA4CC5gpm5icfr5hwg13-20" target="oA4CC5gpm5icfr5hwg13-24">
          <mxGeometry relative="1" as="geometry">
            <mxPoint x="320" y="350" as="targetPoint" />
          </mxGeometry>
        </mxCell>
        <mxCell id="oA4CC5gpm5icfr5hwg13-19" value="yes" style="edgeStyle=orthogonalEdgeStyle;rounded=0;orthogonalLoop=1;jettySize=auto;html=1;" edge="1" parent="oA4CC5gpm5icfr5hwg13-1" source="oA4CC5gpm5icfr5hwg13-20" target="oA4CC5gpm5icfr5hwg13-22">
          <mxGeometry relative="1" as="geometry">
            <mxPoint x="480" y="460" as="targetPoint" />
          </mxGeometry>
        </mxCell>
        <mxCell id="oA4CC5gpm5icfr5hwg13-20" value="&lt;font style=&quot;font-size: 10px;&quot;&gt;is unauthorize&lt;/font&gt;" style="rhombus;whiteSpace=wrap;html=1;" vertex="1" parent="oA4CC5gpm5icfr5hwg13-1">
          <mxGeometry x="440" y="310" width="80" height="80" as="geometry" />
        </mxCell>
        <mxCell id="oA4CC5gpm5icfr5hwg13-21" style="edgeStyle=orthogonalEdgeStyle;rounded=0;orthogonalLoop=1;jettySize=auto;html=1;" edge="1" parent="oA4CC5gpm5icfr5hwg13-1" source="oA4CC5gpm5icfr5hwg13-22" target="oA4CC5gpm5icfr5hwg13-4">
          <mxGeometry relative="1" as="geometry">
            <Array as="points">
              <mxPoint x="680" y="420" />
              <mxPoint x="80" y="420" />
            </Array>
          </mxGeometry>
        </mxCell>
        <mxCell id="oA4CC5gpm5icfr5hwg13-22" value="logout" style="shape=process;whiteSpace=wrap;html=1;backgroundOutline=1;" vertex="1" parent="oA4CC5gpm5icfr5hwg13-1">
          <mxGeometry x="620" y="320" width="120" height="60" as="geometry" />
        </mxCell>
        <mxCell id="oA4CC5gpm5icfr5hwg13-23" style="edgeStyle=orthogonalEdgeStyle;rounded=0;orthogonalLoop=1;jettySize=auto;html=1;" edge="1" parent="oA4CC5gpm5icfr5hwg13-1" source="oA4CC5gpm5icfr5hwg13-24" target="oA4CC5gpm5icfr5hwg13-4">
          <mxGeometry relative="1" as="geometry" />
        </mxCell>
        <mxCell id="oA4CC5gpm5icfr5hwg13-24" value="show error" style="rounded=0;whiteSpace=wrap;html=1;" vertex="1" parent="oA4CC5gpm5icfr5hwg13-1">
          <mxGeometry x="220" y="320" width="120" height="60" as="geometry" />
        </mxCell>
      </root>
    </mxGraphModel>
  </diagram>
  <diagram name="4 delete user" id="q6dbAhb90gO_-fEHKmZ-">
    <mxGraphModel dx="1042" dy="626" grid="1" gridSize="10" guides="1" tooltips="1" connect="1" arrows="1" fold="1" page="1" pageScale="1" pageWidth="827" pageHeight="1169" math="0" shadow="0">
      <root>
        <mxCell id="u79HUj3R-7Wn8y6_-pCj-0" />
        <mxCell id="u79HUj3R-7Wn8y6_-pCj-1" parent="u79HUj3R-7Wn8y6_-pCj-0" />
        <mxCell id="u79HUj3R-7Wn8y6_-pCj-2" value="" style="edgeStyle=orthogonalEdgeStyle;rounded=0;orthogonalLoop=1;jettySize=auto;html=1;" edge="1" parent="u79HUj3R-7Wn8y6_-pCj-1" source="u79HUj3R-7Wn8y6_-pCj-3" target="u79HUj3R-7Wn8y6_-pCj-6">
          <mxGeometry relative="1" as="geometry" />
        </mxCell>
        <mxCell id="u79HUj3R-7Wn8y6_-pCj-3" value="start" style="rounded=1;whiteSpace=wrap;html=1;arcSize=50;" vertex="1" parent="u79HUj3R-7Wn8y6_-pCj-1">
          <mxGeometry x="20" y="30" width="120" height="60" as="geometry" />
        </mxCell>
        <mxCell id="u79HUj3R-7Wn8y6_-pCj-4" value="end" style="rounded=1;whiteSpace=wrap;html=1;arcSize=50;" vertex="1" parent="u79HUj3R-7Wn8y6_-pCj-1">
          <mxGeometry x="20" y="170" width="120" height="60" as="geometry" />
        </mxCell>
        <mxCell id="u79HUj3R-7Wn8y6_-pCj-5" value="" style="edgeStyle=orthogonalEdgeStyle;rounded=0;orthogonalLoop=1;jettySize=auto;html=1;" edge="1" parent="u79HUj3R-7Wn8y6_-pCj-1" source="u79HUj3R-7Wn8y6_-pCj-6" target="u79HUj3R-7Wn8y6_-pCj-8">
          <mxGeometry relative="1" as="geometry" />
        </mxCell>
        <mxCell id="u79HUj3R-7Wn8y6_-pCj-6" value="press update user button" style="whiteSpace=wrap;html=1;rounded=0;arcSize=50;" vertex="1" parent="u79HUj3R-7Wn8y6_-pCj-1">
          <mxGeometry x="220" y="30" width="120" height="60" as="geometry" />
        </mxCell>
        <mxCell id="u79HUj3R-7Wn8y6_-pCj-7" value="" style="edgeStyle=orthogonalEdgeStyle;rounded=0;orthogonalLoop=1;jettySize=auto;html=1;" edge="1" parent="u79HUj3R-7Wn8y6_-pCj-1" source="u79HUj3R-7Wn8y6_-pCj-8" target="u79HUj3R-7Wn8y6_-pCj-10">
          <mxGeometry relative="1" as="geometry" />
        </mxCell>
        <mxCell id="u79HUj3R-7Wn8y6_-pCj-8" value="press delete user button" style="whiteSpace=wrap;html=1;rounded=0;arcSize=50;" vertex="1" parent="u79HUj3R-7Wn8y6_-pCj-1">
          <mxGeometry x="420" y="30" width="120" height="60" as="geometry" />
        </mxCell>
        <mxCell id="u79HUj3R-7Wn8y6_-pCj-9" value="" style="edgeStyle=orthogonalEdgeStyle;rounded=0;orthogonalLoop=1;jettySize=auto;html=1;" edge="1" parent="u79HUj3R-7Wn8y6_-pCj-1" source="u79HUj3R-7Wn8y6_-pCj-10" target="u79HUj3R-7Wn8y6_-pCj-12">
          <mxGeometry relative="1" as="geometry" />
        </mxCell>
        <mxCell id="u79HUj3R-7Wn8y6_-pCj-10" value="check auth" style="shape=process;whiteSpace=wrap;html=1;backgroundOutline=1;" vertex="1" parent="u79HUj3R-7Wn8y6_-pCj-1">
          <mxGeometry x="620" y="30" width="120" height="60" as="geometry" />
        </mxCell>
        <mxCell id="u79HUj3R-7Wn8y6_-pCj-11" value="" style="edgeStyle=orthogonalEdgeStyle;rounded=0;orthogonalLoop=1;jettySize=auto;html=1;" edge="1" parent="u79HUj3R-7Wn8y6_-pCj-1" source="u79HUj3R-7Wn8y6_-pCj-12" target="u79HUj3R-7Wn8y6_-pCj-15">
          <mxGeometry relative="1" as="geometry" />
        </mxCell>
        <mxCell id="u79HUj3R-7Wn8y6_-pCj-12" value="use access token to delete user" style="whiteSpace=wrap;html=1;" vertex="1" parent="u79HUj3R-7Wn8y6_-pCj-1">
          <mxGeometry x="620" y="170" width="120" height="60" as="geometry" />
        </mxCell>
        <mxCell id="u79HUj3R-7Wn8y6_-pCj-13" value="yes" style="edgeStyle=orthogonalEdgeStyle;rounded=0;orthogonalLoop=1;jettySize=auto;html=1;" edge="1" parent="u79HUj3R-7Wn8y6_-pCj-1" source="u79HUj3R-7Wn8y6_-pCj-15" target="u79HUj3R-7Wn8y6_-pCj-17">
          <mxGeometry relative="1" as="geometry" />
        </mxCell>
        <mxCell id="u79HUj3R-7Wn8y6_-pCj-14" value="no" style="edgeStyle=orthogonalEdgeStyle;rounded=0;orthogonalLoop=1;jettySize=auto;html=1;" edge="1" parent="u79HUj3R-7Wn8y6_-pCj-1" source="u79HUj3R-7Wn8y6_-pCj-15" target="u79HUj3R-7Wn8y6_-pCj-20">
          <mxGeometry relative="1" as="geometry">
            <mxPoint x="480" y="310" as="targetPoint" />
          </mxGeometry>
        </mxCell>
        <mxCell id="u79HUj3R-7Wn8y6_-pCj-15" value="success" style="rhombus;whiteSpace=wrap;html=1;" vertex="1" parent="u79HUj3R-7Wn8y6_-pCj-1">
          <mxGeometry x="440" y="160" width="80" height="80" as="geometry" />
        </mxCell>
        <mxCell id="u79HUj3R-7Wn8y6_-pCj-16" style="edgeStyle=orthogonalEdgeStyle;rounded=0;orthogonalLoop=1;jettySize=auto;html=1;" edge="1" parent="u79HUj3R-7Wn8y6_-pCj-1" source="u79HUj3R-7Wn8y6_-pCj-17" target="u79HUj3R-7Wn8y6_-pCj-4">
          <mxGeometry relative="1" as="geometry" />
        </mxCell>
        <mxCell id="u79HUj3R-7Wn8y6_-pCj-17" value="show users" style="rounded=0;whiteSpace=wrap;html=1;" vertex="1" parent="u79HUj3R-7Wn8y6_-pCj-1">
          <mxGeometry x="220" y="170" width="120" height="60" as="geometry" />
        </mxCell>
        <mxCell id="u79HUj3R-7Wn8y6_-pCj-18" value="no" style="edgeStyle=orthogonalEdgeStyle;rounded=0;orthogonalLoop=1;jettySize=auto;html=1;" edge="1" parent="u79HUj3R-7Wn8y6_-pCj-1" source="u79HUj3R-7Wn8y6_-pCj-20" target="u79HUj3R-7Wn8y6_-pCj-24">
          <mxGeometry relative="1" as="geometry">
            <mxPoint x="320" y="350" as="targetPoint" />
          </mxGeometry>
        </mxCell>
        <mxCell id="u79HUj3R-7Wn8y6_-pCj-19" value="yes" style="edgeStyle=orthogonalEdgeStyle;rounded=0;orthogonalLoop=1;jettySize=auto;html=1;" edge="1" parent="u79HUj3R-7Wn8y6_-pCj-1" source="u79HUj3R-7Wn8y6_-pCj-20" target="u79HUj3R-7Wn8y6_-pCj-22">
          <mxGeometry relative="1" as="geometry">
            <mxPoint x="480" y="460" as="targetPoint" />
          </mxGeometry>
        </mxCell>
        <mxCell id="u79HUj3R-7Wn8y6_-pCj-20" value="&lt;font style=&quot;font-size: 10px;&quot;&gt;is unauthorize&lt;/font&gt;" style="rhombus;whiteSpace=wrap;html=1;" vertex="1" parent="u79HUj3R-7Wn8y6_-pCj-1">
          <mxGeometry x="440" y="310" width="80" height="80" as="geometry" />
        </mxCell>
        <mxCell id="u79HUj3R-7Wn8y6_-pCj-21" style="edgeStyle=orthogonalEdgeStyle;rounded=0;orthogonalLoop=1;jettySize=auto;html=1;" edge="1" parent="u79HUj3R-7Wn8y6_-pCj-1" source="u79HUj3R-7Wn8y6_-pCj-22" target="u79HUj3R-7Wn8y6_-pCj-4">
          <mxGeometry relative="1" as="geometry">
            <Array as="points">
              <mxPoint x="680" y="420" />
              <mxPoint x="80" y="420" />
            </Array>
          </mxGeometry>
        </mxCell>
        <mxCell id="u79HUj3R-7Wn8y6_-pCj-22" value="logout" style="shape=process;whiteSpace=wrap;html=1;backgroundOutline=1;" vertex="1" parent="u79HUj3R-7Wn8y6_-pCj-1">
          <mxGeometry x="620" y="320" width="120" height="60" as="geometry" />
        </mxCell>
        <mxCell id="u79HUj3R-7Wn8y6_-pCj-23" style="edgeStyle=orthogonalEdgeStyle;rounded=0;orthogonalLoop=1;jettySize=auto;html=1;" edge="1" parent="u79HUj3R-7Wn8y6_-pCj-1" source="u79HUj3R-7Wn8y6_-pCj-24" target="u79HUj3R-7Wn8y6_-pCj-4">
          <mxGeometry relative="1" as="geometry" />
        </mxCell>
        <mxCell id="u79HUj3R-7Wn8y6_-pCj-24" value="show error" style="rounded=0;whiteSpace=wrap;html=1;" vertex="1" parent="u79HUj3R-7Wn8y6_-pCj-1">
          <mxGeometry x="220" y="320" width="120" height="60" as="geometry" />
        </mxCell>
      </root>
    </mxGraphModel>
  </diagram>
  <diagram name="5 read users log" id="JUzA1vqck1L3LxyocLKH">
    <mxGraphModel dx="1042" dy="626" grid="1" gridSize="10" guides="1" tooltips="1" connect="1" arrows="1" fold="1" page="1" pageScale="1" pageWidth="827" pageHeight="1169" math="0" shadow="0">
      <root>
        <mxCell id="K4d0eyKw22wQEN1jHcfX-0" />
        <mxCell id="K4d0eyKw22wQEN1jHcfX-1" parent="K4d0eyKw22wQEN1jHcfX-0" />
        <mxCell id="K4d0eyKw22wQEN1jHcfX-2" value="" style="edgeStyle=orthogonalEdgeStyle;rounded=0;orthogonalLoop=1;jettySize=auto;html=1;" edge="1" parent="K4d0eyKw22wQEN1jHcfX-1" source="K4d0eyKw22wQEN1jHcfX-3" target="K4d0eyKw22wQEN1jHcfX-6">
          <mxGeometry relative="1" as="geometry" />
        </mxCell>
        <mxCell id="K4d0eyKw22wQEN1jHcfX-3" value="start" style="rounded=1;whiteSpace=wrap;html=1;arcSize=50;" vertex="1" parent="K4d0eyKw22wQEN1jHcfX-1">
          <mxGeometry x="20" y="20" width="120" height="60" as="geometry" />
        </mxCell>
        <mxCell id="K4d0eyKw22wQEN1jHcfX-4" value="end" style="rounded=1;whiteSpace=wrap;html=1;arcSize=50;" vertex="1" parent="K4d0eyKw22wQEN1jHcfX-1">
          <mxGeometry x="20" y="160" width="120" height="60" as="geometry" />
        </mxCell>
        <mxCell id="K4d0eyKw22wQEN1jHcfX-5" value="" style="edgeStyle=orthogonalEdgeStyle;rounded=0;orthogonalLoop=1;jettySize=auto;html=1;" edge="1" parent="K4d0eyKw22wQEN1jHcfX-1" source="K4d0eyKw22wQEN1jHcfX-6" target="K4d0eyKw22wQEN1jHcfX-8">
          <mxGeometry relative="1" as="geometry" />
        </mxCell>
        <mxCell id="K4d0eyKw22wQEN1jHcfX-6" value="check auth" style="shape=process;whiteSpace=wrap;html=1;backgroundOutline=1;" vertex="1" parent="K4d0eyKw22wQEN1jHcfX-1">
          <mxGeometry x="200" y="20" width="120" height="60" as="geometry" />
        </mxCell>
        <mxCell id="K4d0eyKw22wQEN1jHcfX-7" value="" style="edgeStyle=orthogonalEdgeStyle;rounded=0;orthogonalLoop=1;jettySize=auto;html=1;" edge="1" parent="K4d0eyKw22wQEN1jHcfX-1" source="K4d0eyKw22wQEN1jHcfX-8" target="K4d0eyKw22wQEN1jHcfX-11">
          <mxGeometry relative="1" as="geometry" />
        </mxCell>
        <mxCell id="K4d0eyKw22wQEN1jHcfX-8" value="use access token to get users" style="whiteSpace=wrap;html=1;" vertex="1" parent="K4d0eyKw22wQEN1jHcfX-1">
          <mxGeometry x="400" y="20" width="120" height="60" as="geometry" />
        </mxCell>
        <mxCell id="K4d0eyKw22wQEN1jHcfX-9" value="no" style="edgeStyle=orthogonalEdgeStyle;rounded=0;orthogonalLoop=1;jettySize=auto;html=1;" edge="1" parent="K4d0eyKw22wQEN1jHcfX-1" source="K4d0eyKw22wQEN1jHcfX-11" target="K4d0eyKw22wQEN1jHcfX-13">
          <mxGeometry relative="1" as="geometry" />
        </mxCell>
        <mxCell id="K4d0eyKw22wQEN1jHcfX-10" value="yes" style="edgeStyle=orthogonalEdgeStyle;rounded=0;orthogonalLoop=1;jettySize=auto;html=1;" edge="1" parent="K4d0eyKw22wQEN1jHcfX-1" source="K4d0eyKw22wQEN1jHcfX-11" target="K4d0eyKw22wQEN1jHcfX-15">
          <mxGeometry relative="1" as="geometry" />
        </mxCell>
        <mxCell id="K4d0eyKw22wQEN1jHcfX-11" value="is success" style="rhombus;whiteSpace=wrap;html=1;" vertex="1" parent="K4d0eyKw22wQEN1jHcfX-1">
          <mxGeometry x="420" y="150" width="80" height="80" as="geometry" />
        </mxCell>
        <mxCell id="K4d0eyKw22wQEN1jHcfX-12" style="edgeStyle=orthogonalEdgeStyle;rounded=0;orthogonalLoop=1;jettySize=auto;html=1;" edge="1" parent="K4d0eyKw22wQEN1jHcfX-1" source="K4d0eyKw22wQEN1jHcfX-13" target="K4d0eyKw22wQEN1jHcfX-4">
          <mxGeometry relative="1" as="geometry">
            <Array as="points">
              <mxPoint x="620" y="260" />
              <mxPoint x="80" y="260" />
            </Array>
          </mxGeometry>
        </mxCell>
        <mxCell id="K4d0eyKw22wQEN1jHcfX-13" value="show error" style="whiteSpace=wrap;html=1;" vertex="1" parent="K4d0eyKw22wQEN1jHcfX-1">
          <mxGeometry x="560" y="160" width="120" height="60" as="geometry" />
        </mxCell>
        <mxCell id="K4d0eyKw22wQEN1jHcfX-14" style="edgeStyle=orthogonalEdgeStyle;rounded=0;orthogonalLoop=1;jettySize=auto;html=1;" edge="1" parent="K4d0eyKw22wQEN1jHcfX-1" source="K4d0eyKw22wQEN1jHcfX-15" target="K4d0eyKw22wQEN1jHcfX-4">
          <mxGeometry relative="1" as="geometry" />
        </mxCell>
        <mxCell id="K4d0eyKw22wQEN1jHcfX-15" value="show users" style="whiteSpace=wrap;html=1;" vertex="1" parent="K4d0eyKw22wQEN1jHcfX-1">
          <mxGeometry x="200" y="160" width="120" height="60" as="geometry" />
        </mxCell>
      </root>
    </mxGraphModel>
  </diagram>
  <diagram name="6 read persons log" id="cyhH2hbnnqz-cotiUNll">
    <mxGraphModel dx="1042" dy="626" grid="1" gridSize="10" guides="1" tooltips="1" connect="1" arrows="1" fold="1" page="1" pageScale="1" pageWidth="827" pageHeight="1169" math="0" shadow="0">
      <root>
        <mxCell id="Nss9YFEGL2WjQfsr_YYd-0" />
        <mxCell id="Nss9YFEGL2WjQfsr_YYd-1" parent="Nss9YFEGL2WjQfsr_YYd-0" />
        <mxCell id="Nss9YFEGL2WjQfsr_YYd-2" value="" style="edgeStyle=orthogonalEdgeStyle;rounded=0;orthogonalLoop=1;jettySize=auto;html=1;" edge="1" parent="Nss9YFEGL2WjQfsr_YYd-1" source="Nss9YFEGL2WjQfsr_YYd-3" target="Nss9YFEGL2WjQfsr_YYd-6">
          <mxGeometry relative="1" as="geometry" />
        </mxCell>
        <mxCell id="Nss9YFEGL2WjQfsr_YYd-3" value="start" style="rounded=1;whiteSpace=wrap;html=1;arcSize=50;" vertex="1" parent="Nss9YFEGL2WjQfsr_YYd-1">
          <mxGeometry x="20" y="20" width="120" height="60" as="geometry" />
        </mxCell>
        <mxCell id="Nss9YFEGL2WjQfsr_YYd-4" value="end" style="rounded=1;whiteSpace=wrap;html=1;arcSize=50;" vertex="1" parent="Nss9YFEGL2WjQfsr_YYd-1">
          <mxGeometry x="20" y="160" width="120" height="60" as="geometry" />
        </mxCell>
        <mxCell id="Nss9YFEGL2WjQfsr_YYd-5" value="" style="edgeStyle=orthogonalEdgeStyle;rounded=0;orthogonalLoop=1;jettySize=auto;html=1;" edge="1" parent="Nss9YFEGL2WjQfsr_YYd-1" source="Nss9YFEGL2WjQfsr_YYd-6" target="Nss9YFEGL2WjQfsr_YYd-8">
          <mxGeometry relative="1" as="geometry" />
        </mxCell>
        <mxCell id="Nss9YFEGL2WjQfsr_YYd-6" value="check auth" style="shape=process;whiteSpace=wrap;html=1;backgroundOutline=1;" vertex="1" parent="Nss9YFEGL2WjQfsr_YYd-1">
          <mxGeometry x="200" y="20" width="120" height="60" as="geometry" />
        </mxCell>
        <mxCell id="Nss9YFEGL2WjQfsr_YYd-7" value="" style="edgeStyle=orthogonalEdgeStyle;rounded=0;orthogonalLoop=1;jettySize=auto;html=1;" edge="1" parent="Nss9YFEGL2WjQfsr_YYd-1" source="Nss9YFEGL2WjQfsr_YYd-8" target="Nss9YFEGL2WjQfsr_YYd-11">
          <mxGeometry relative="1" as="geometry" />
        </mxCell>
        <mxCell id="Nss9YFEGL2WjQfsr_YYd-8" value="use access token to get persons" style="whiteSpace=wrap;html=1;" vertex="1" parent="Nss9YFEGL2WjQfsr_YYd-1">
          <mxGeometry x="400" y="20" width="120" height="60" as="geometry" />
        </mxCell>
        <mxCell id="Nss9YFEGL2WjQfsr_YYd-9" value="no" style="edgeStyle=orthogonalEdgeStyle;rounded=0;orthogonalLoop=1;jettySize=auto;html=1;" edge="1" parent="Nss9YFEGL2WjQfsr_YYd-1" source="Nss9YFEGL2WjQfsr_YYd-11" target="Nss9YFEGL2WjQfsr_YYd-13">
          <mxGeometry relative="1" as="geometry" />
        </mxCell>
        <mxCell id="Nss9YFEGL2WjQfsr_YYd-10" value="yes" style="edgeStyle=orthogonalEdgeStyle;rounded=0;orthogonalLoop=1;jettySize=auto;html=1;" edge="1" parent="Nss9YFEGL2WjQfsr_YYd-1" source="Nss9YFEGL2WjQfsr_YYd-11" target="Nss9YFEGL2WjQfsr_YYd-15">
          <mxGeometry relative="1" as="geometry" />
        </mxCell>
        <mxCell id="Nss9YFEGL2WjQfsr_YYd-11" value="is success" style="rhombus;whiteSpace=wrap;html=1;" vertex="1" parent="Nss9YFEGL2WjQfsr_YYd-1">
          <mxGeometry x="420" y="150" width="80" height="80" as="geometry" />
        </mxCell>
        <mxCell id="Nss9YFEGL2WjQfsr_YYd-12" style="edgeStyle=orthogonalEdgeStyle;rounded=0;orthogonalLoop=1;jettySize=auto;html=1;" edge="1" parent="Nss9YFEGL2WjQfsr_YYd-1" source="Nss9YFEGL2WjQfsr_YYd-13" target="Nss9YFEGL2WjQfsr_YYd-4">
          <mxGeometry relative="1" as="geometry">
            <Array as="points">
              <mxPoint x="620" y="260" />
              <mxPoint x="80" y="260" />
            </Array>
          </mxGeometry>
        </mxCell>
        <mxCell id="Nss9YFEGL2WjQfsr_YYd-13" value="show error" style="whiteSpace=wrap;html=1;" vertex="1" parent="Nss9YFEGL2WjQfsr_YYd-1">
          <mxGeometry x="560" y="160" width="120" height="60" as="geometry" />
        </mxCell>
        <mxCell id="Nss9YFEGL2WjQfsr_YYd-14" style="edgeStyle=orthogonalEdgeStyle;rounded=0;orthogonalLoop=1;jettySize=auto;html=1;" edge="1" parent="Nss9YFEGL2WjQfsr_YYd-1" source="Nss9YFEGL2WjQfsr_YYd-15" target="Nss9YFEGL2WjQfsr_YYd-4">
          <mxGeometry relative="1" as="geometry" />
        </mxCell>
        <mxCell id="Nss9YFEGL2WjQfsr_YYd-15" value="show persons" style="whiteSpace=wrap;html=1;" vertex="1" parent="Nss9YFEGL2WjQfsr_YYd-1">
          <mxGeometry x="200" y="160" width="120" height="60" as="geometry" />
        </mxCell>
      </root>
    </mxGraphModel>
  </diagram>
  <diagram name="7 read organizations log" id="9rzl6Nx1LqCBae7le3Ug">
    <mxGraphModel dx="1042" dy="626" grid="1" gridSize="10" guides="1" tooltips="1" connect="1" arrows="1" fold="1" page="1" pageScale="1" pageWidth="827" pageHeight="1169" math="0" shadow="0">
      <root>
        <mxCell id="DteIRsq_MjHSS_cntFfZ-0" />
        <mxCell id="DteIRsq_MjHSS_cntFfZ-1" parent="DteIRsq_MjHSS_cntFfZ-0" />
        <mxCell id="DteIRsq_MjHSS_cntFfZ-2" value="" style="edgeStyle=orthogonalEdgeStyle;rounded=0;orthogonalLoop=1;jettySize=auto;html=1;" edge="1" parent="DteIRsq_MjHSS_cntFfZ-1" source="DteIRsq_MjHSS_cntFfZ-3" target="DteIRsq_MjHSS_cntFfZ-6">
          <mxGeometry relative="1" as="geometry" />
        </mxCell>
        <mxCell id="DteIRsq_MjHSS_cntFfZ-3" value="start" style="rounded=1;whiteSpace=wrap;html=1;arcSize=50;" vertex="1" parent="DteIRsq_MjHSS_cntFfZ-1">
          <mxGeometry x="20" y="20" width="120" height="60" as="geometry" />
        </mxCell>
        <mxCell id="DteIRsq_MjHSS_cntFfZ-4" value="end" style="rounded=1;whiteSpace=wrap;html=1;arcSize=50;" vertex="1" parent="DteIRsq_MjHSS_cntFfZ-1">
          <mxGeometry x="20" y="160" width="120" height="60" as="geometry" />
        </mxCell>
        <mxCell id="DteIRsq_MjHSS_cntFfZ-5" value="" style="edgeStyle=orthogonalEdgeStyle;rounded=0;orthogonalLoop=1;jettySize=auto;html=1;" edge="1" parent="DteIRsq_MjHSS_cntFfZ-1" source="DteIRsq_MjHSS_cntFfZ-6" target="DteIRsq_MjHSS_cntFfZ-8">
          <mxGeometry relative="1" as="geometry" />
        </mxCell>
        <mxCell id="DteIRsq_MjHSS_cntFfZ-6" value="check auth" style="shape=process;whiteSpace=wrap;html=1;backgroundOutline=1;" vertex="1" parent="DteIRsq_MjHSS_cntFfZ-1">
          <mxGeometry x="200" y="20" width="120" height="60" as="geometry" />
        </mxCell>
        <mxCell id="DteIRsq_MjHSS_cntFfZ-7" value="" style="edgeStyle=orthogonalEdgeStyle;rounded=0;orthogonalLoop=1;jettySize=auto;html=1;" edge="1" parent="DteIRsq_MjHSS_cntFfZ-1" source="DteIRsq_MjHSS_cntFfZ-8" target="DteIRsq_MjHSS_cntFfZ-11">
          <mxGeometry relative="1" as="geometry" />
        </mxCell>
        <mxCell id="DteIRsq_MjHSS_cntFfZ-8" value="use access token to get organizations" style="whiteSpace=wrap;html=1;" vertex="1" parent="DteIRsq_MjHSS_cntFfZ-1">
          <mxGeometry x="400" y="20" width="120" height="60" as="geometry" />
        </mxCell>
        <mxCell id="DteIRsq_MjHSS_cntFfZ-9" value="no" style="edgeStyle=orthogonalEdgeStyle;rounded=0;orthogonalLoop=1;jettySize=auto;html=1;" edge="1" parent="DteIRsq_MjHSS_cntFfZ-1" source="DteIRsq_MjHSS_cntFfZ-11" target="DteIRsq_MjHSS_cntFfZ-13">
          <mxGeometry relative="1" as="geometry" />
        </mxCell>
        <mxCell id="DteIRsq_MjHSS_cntFfZ-10" value="yes" style="edgeStyle=orthogonalEdgeStyle;rounded=0;orthogonalLoop=1;jettySize=auto;html=1;" edge="1" parent="DteIRsq_MjHSS_cntFfZ-1" source="DteIRsq_MjHSS_cntFfZ-11" target="DteIRsq_MjHSS_cntFfZ-15">
          <mxGeometry relative="1" as="geometry" />
        </mxCell>
        <mxCell id="DteIRsq_MjHSS_cntFfZ-11" value="is success" style="rhombus;whiteSpace=wrap;html=1;" vertex="1" parent="DteIRsq_MjHSS_cntFfZ-1">
          <mxGeometry x="420" y="150" width="80" height="80" as="geometry" />
        </mxCell>
        <mxCell id="DteIRsq_MjHSS_cntFfZ-12" style="edgeStyle=orthogonalEdgeStyle;rounded=0;orthogonalLoop=1;jettySize=auto;html=1;" edge="1" parent="DteIRsq_MjHSS_cntFfZ-1" source="DteIRsq_MjHSS_cntFfZ-13" target="DteIRsq_MjHSS_cntFfZ-4">
          <mxGeometry relative="1" as="geometry">
            <Array as="points">
              <mxPoint x="620" y="260" />
              <mxPoint x="80" y="260" />
            </Array>
          </mxGeometry>
        </mxCell>
        <mxCell id="DteIRsq_MjHSS_cntFfZ-13" value="show error" style="whiteSpace=wrap;html=1;" vertex="1" parent="DteIRsq_MjHSS_cntFfZ-1">
          <mxGeometry x="560" y="160" width="120" height="60" as="geometry" />
        </mxCell>
        <mxCell id="DteIRsq_MjHSS_cntFfZ-14" style="edgeStyle=orthogonalEdgeStyle;rounded=0;orthogonalLoop=1;jettySize=auto;html=1;" edge="1" parent="DteIRsq_MjHSS_cntFfZ-1" source="DteIRsq_MjHSS_cntFfZ-15" target="DteIRsq_MjHSS_cntFfZ-4">
          <mxGeometry relative="1" as="geometry" />
        </mxCell>
        <mxCell id="DteIRsq_MjHSS_cntFfZ-15" value="show organizations" style="whiteSpace=wrap;html=1;" vertex="1" parent="DteIRsq_MjHSS_cntFfZ-1">
          <mxGeometry x="200" y="160" width="120" height="60" as="geometry" />
        </mxCell>
      </root>
    </mxGraphModel>
  </diagram>
  <diagram name="8 read communication events log" id="EgIzl8z2suH8az0w1kM_">
    <mxGraphModel dx="1042" dy="626" grid="1" gridSize="10" guides="1" tooltips="1" connect="1" arrows="1" fold="1" page="1" pageScale="1" pageWidth="827" pageHeight="1169" math="0" shadow="0">
      <root>
        <mxCell id="m5_sU7ZjMkaLH-cNxZhN-0" />
        <mxCell id="m5_sU7ZjMkaLH-cNxZhN-1" parent="m5_sU7ZjMkaLH-cNxZhN-0" />
        <mxCell id="m5_sU7ZjMkaLH-cNxZhN-2" value="" style="edgeStyle=orthogonalEdgeStyle;rounded=0;orthogonalLoop=1;jettySize=auto;html=1;" edge="1" parent="m5_sU7ZjMkaLH-cNxZhN-1" source="m5_sU7ZjMkaLH-cNxZhN-3" target="m5_sU7ZjMkaLH-cNxZhN-6">
          <mxGeometry relative="1" as="geometry" />
        </mxCell>
        <mxCell id="m5_sU7ZjMkaLH-cNxZhN-3" value="start" style="rounded=1;whiteSpace=wrap;html=1;arcSize=50;" vertex="1" parent="m5_sU7ZjMkaLH-cNxZhN-1">
          <mxGeometry x="20" y="20" width="120" height="60" as="geometry" />
        </mxCell>
        <mxCell id="m5_sU7ZjMkaLH-cNxZhN-4" value="end" style="rounded=1;whiteSpace=wrap;html=1;arcSize=50;" vertex="1" parent="m5_sU7ZjMkaLH-cNxZhN-1">
          <mxGeometry x="20" y="160" width="120" height="60" as="geometry" />
        </mxCell>
        <mxCell id="m5_sU7ZjMkaLH-cNxZhN-5" value="" style="edgeStyle=orthogonalEdgeStyle;rounded=0;orthogonalLoop=1;jettySize=auto;html=1;" edge="1" parent="m5_sU7ZjMkaLH-cNxZhN-1" source="m5_sU7ZjMkaLH-cNxZhN-6" target="m5_sU7ZjMkaLH-cNxZhN-8">
          <mxGeometry relative="1" as="geometry" />
        </mxCell>
        <mxCell id="m5_sU7ZjMkaLH-cNxZhN-6" value="check auth" style="shape=process;whiteSpace=wrap;html=1;backgroundOutline=1;" vertex="1" parent="m5_sU7ZjMkaLH-cNxZhN-1">
          <mxGeometry x="200" y="20" width="120" height="60" as="geometry" />
        </mxCell>
        <mxCell id="m5_sU7ZjMkaLH-cNxZhN-7" value="" style="edgeStyle=orthogonalEdgeStyle;rounded=0;orthogonalLoop=1;jettySize=auto;html=1;" edge="1" parent="m5_sU7ZjMkaLH-cNxZhN-1" source="m5_sU7ZjMkaLH-cNxZhN-8" target="m5_sU7ZjMkaLH-cNxZhN-11">
          <mxGeometry relative="1" as="geometry" />
        </mxCell>
        <mxCell id="m5_sU7ZjMkaLH-cNxZhN-8" value="use access token to get communication events" style="whiteSpace=wrap;html=1;" vertex="1" parent="m5_sU7ZjMkaLH-cNxZhN-1">
          <mxGeometry x="400" y="20" width="120" height="60" as="geometry" />
        </mxCell>
        <mxCell id="m5_sU7ZjMkaLH-cNxZhN-9" value="no" style="edgeStyle=orthogonalEdgeStyle;rounded=0;orthogonalLoop=1;jettySize=auto;html=1;" edge="1" parent="m5_sU7ZjMkaLH-cNxZhN-1" source="m5_sU7ZjMkaLH-cNxZhN-11" target="m5_sU7ZjMkaLH-cNxZhN-13">
          <mxGeometry relative="1" as="geometry" />
        </mxCell>
        <mxCell id="m5_sU7ZjMkaLH-cNxZhN-10" value="yes" style="edgeStyle=orthogonalEdgeStyle;rounded=0;orthogonalLoop=1;jettySize=auto;html=1;" edge="1" parent="m5_sU7ZjMkaLH-cNxZhN-1" source="m5_sU7ZjMkaLH-cNxZhN-11" target="m5_sU7ZjMkaLH-cNxZhN-15">
          <mxGeometry relative="1" as="geometry" />
        </mxCell>
        <mxCell id="m5_sU7ZjMkaLH-cNxZhN-11" value="is success" style="rhombus;whiteSpace=wrap;html=1;" vertex="1" parent="m5_sU7ZjMkaLH-cNxZhN-1">
          <mxGeometry x="420" y="150" width="80" height="80" as="geometry" />
        </mxCell>
        <mxCell id="m5_sU7ZjMkaLH-cNxZhN-12" style="edgeStyle=orthogonalEdgeStyle;rounded=0;orthogonalLoop=1;jettySize=auto;html=1;" edge="1" parent="m5_sU7ZjMkaLH-cNxZhN-1" source="m5_sU7ZjMkaLH-cNxZhN-13" target="m5_sU7ZjMkaLH-cNxZhN-4">
          <mxGeometry relative="1" as="geometry">
            <Array as="points">
              <mxPoint x="620" y="260" />
              <mxPoint x="80" y="260" />
            </Array>
          </mxGeometry>
        </mxCell>
        <mxCell id="m5_sU7ZjMkaLH-cNxZhN-13" value="show error" style="whiteSpace=wrap;html=1;" vertex="1" parent="m5_sU7ZjMkaLH-cNxZhN-1">
          <mxGeometry x="560" y="160" width="120" height="60" as="geometry" />
        </mxCell>
        <mxCell id="m5_sU7ZjMkaLH-cNxZhN-14" style="edgeStyle=orthogonalEdgeStyle;rounded=0;orthogonalLoop=1;jettySize=auto;html=1;" edge="1" parent="m5_sU7ZjMkaLH-cNxZhN-1" source="m5_sU7ZjMkaLH-cNxZhN-15" target="m5_sU7ZjMkaLH-cNxZhN-4">
          <mxGeometry relative="1" as="geometry" />
        </mxCell>
        <mxCell id="m5_sU7ZjMkaLH-cNxZhN-15" value="show communication events" style="whiteSpace=wrap;html=1;" vertex="1" parent="m5_sU7ZjMkaLH-cNxZhN-1">
          <mxGeometry x="200" y="160" width="120" height="60" as="geometry" />
        </mxCell>
      </root>
    </mxGraphModel>
  </diagram>
  <diagram name="create mold" id="1QbWZeA6MTVED_bgXNjE">
    <mxGraphModel dx="1042" dy="626" grid="1" gridSize="10" guides="1" tooltips="1" connect="1" arrows="1" fold="1" page="1" pageScale="1" pageWidth="827" pageHeight="1169" math="0" shadow="0">
      <root>
        <mxCell id="XhHmiUflHOxw2_ojajZN-0" />
        <mxCell id="XhHmiUflHOxw2_ojajZN-1" parent="XhHmiUflHOxw2_ojajZN-0" />
        <mxCell id="XhHmiUflHOxw2_ojajZN-2" value="" style="edgeStyle=orthogonalEdgeStyle;rounded=0;orthogonalLoop=1;jettySize=auto;html=1;" parent="XhHmiUflHOxw2_ojajZN-1" source="XhHmiUflHOxw2_ojajZN-3" target="XhHmiUflHOxw2_ojajZN-6" edge="1">
          <mxGeometry relative="1" as="geometry" />
        </mxCell>
        <mxCell id="XhHmiUflHOxw2_ojajZN-3" value="start" style="rounded=1;whiteSpace=wrap;html=1;arcSize=50;" parent="XhHmiUflHOxw2_ojajZN-1" vertex="1">
          <mxGeometry x="20" y="30" width="120" height="60" as="geometry" />
        </mxCell>
        <mxCell id="XhHmiUflHOxw2_ojajZN-4" value="end" style="rounded=1;whiteSpace=wrap;html=1;arcSize=50;" parent="XhHmiUflHOxw2_ojajZN-1" vertex="1">
          <mxGeometry x="20" y="170" width="120" height="60" as="geometry" />
        </mxCell>
        <mxCell id="XhHmiUflHOxw2_ojajZN-5" value="" style="edgeStyle=orthogonalEdgeStyle;rounded=0;orthogonalLoop=1;jettySize=auto;html=1;" parent="XhHmiUflHOxw2_ojajZN-1" source="XhHmiUflHOxw2_ojajZN-6" target="XhHmiUflHOxw2_ojajZN-8" edge="1">
          <mxGeometry relative="1" as="geometry" />
        </mxCell>
        <mxCell id="XhHmiUflHOxw2_ojajZN-6" value="press create mold button" style="whiteSpace=wrap;html=1;rounded=0;arcSize=50;" parent="XhHmiUflHOxw2_ojajZN-1" vertex="1">
          <mxGeometry x="220" y="30" width="120" height="60" as="geometry" />
        </mxCell>
        <mxCell id="XhHmiUflHOxw2_ojajZN-7" value="" style="edgeStyle=orthogonalEdgeStyle;rounded=0;orthogonalLoop=1;jettySize=auto;html=1;" parent="XhHmiUflHOxw2_ojajZN-1" source="XhHmiUflHOxw2_ojajZN-8" target="XhHmiUflHOxw2_ojajZN-10" edge="1">
          <mxGeometry relative="1" as="geometry" />
        </mxCell>
        <mxCell id="XhHmiUflHOxw2_ojajZN-8" value="input mold detail" style="whiteSpace=wrap;html=1;rounded=0;arcSize=50;" parent="XhHmiUflHOxw2_ojajZN-1" vertex="1">
          <mxGeometry x="420" y="30" width="120" height="60" as="geometry" />
        </mxCell>
        <mxCell id="XhHmiUflHOxw2_ojajZN-9" value="" style="edgeStyle=orthogonalEdgeStyle;rounded=0;orthogonalLoop=1;jettySize=auto;html=1;" parent="XhHmiUflHOxw2_ojajZN-1" source="XhHmiUflHOxw2_ojajZN-10" target="XhHmiUflHOxw2_ojajZN-12" edge="1">
          <mxGeometry relative="1" as="geometry" />
        </mxCell>
        <mxCell id="XhHmiUflHOxw2_ojajZN-10" value="check auth" style="shape=process;whiteSpace=wrap;html=1;backgroundOutline=1;" parent="XhHmiUflHOxw2_ojajZN-1" vertex="1">
          <mxGeometry x="620" y="30" width="120" height="60" as="geometry" />
        </mxCell>
        <mxCell id="XhHmiUflHOxw2_ojajZN-11" value="" style="edgeStyle=orthogonalEdgeStyle;rounded=0;orthogonalLoop=1;jettySize=auto;html=1;" parent="XhHmiUflHOxw2_ojajZN-1" source="XhHmiUflHOxw2_ojajZN-12" target="XhHmiUflHOxw2_ojajZN-15" edge="1">
          <mxGeometry relative="1" as="geometry" />
        </mxCell>
        <mxCell id="XhHmiUflHOxw2_ojajZN-12" value="use access token to create mold" style="whiteSpace=wrap;html=1;" parent="XhHmiUflHOxw2_ojajZN-1" vertex="1">
          <mxGeometry x="620" y="170" width="120" height="60" as="geometry" />
        </mxCell>
        <mxCell id="XhHmiUflHOxw2_ojajZN-13" value="yes" style="edgeStyle=orthogonalEdgeStyle;rounded=0;orthogonalLoop=1;jettySize=auto;html=1;" parent="XhHmiUflHOxw2_ojajZN-1" source="XhHmiUflHOxw2_ojajZN-15" target="XhHmiUflHOxw2_ojajZN-17" edge="1">
          <mxGeometry relative="1" as="geometry" />
        </mxCell>
        <mxCell id="XhHmiUflHOxw2_ojajZN-14" value="no" style="edgeStyle=orthogonalEdgeStyle;rounded=0;orthogonalLoop=1;jettySize=auto;html=1;" parent="XhHmiUflHOxw2_ojajZN-1" source="XhHmiUflHOxw2_ojajZN-15" target="XhHmiUflHOxw2_ojajZN-20" edge="1">
          <mxGeometry relative="1" as="geometry">
            <mxPoint x="480" y="310" as="targetPoint" />
          </mxGeometry>
        </mxCell>
        <mxCell id="XhHmiUflHOxw2_ojajZN-15" value="success" style="rhombus;whiteSpace=wrap;html=1;" parent="XhHmiUflHOxw2_ojajZN-1" vertex="1">
          <mxGeometry x="440" y="160" width="80" height="80" as="geometry" />
        </mxCell>
        <mxCell id="XhHmiUflHOxw2_ojajZN-16" style="edgeStyle=orthogonalEdgeStyle;rounded=0;orthogonalLoop=1;jettySize=auto;html=1;" parent="XhHmiUflHOxw2_ojajZN-1" source="XhHmiUflHOxw2_ojajZN-17" target="XhHmiUflHOxw2_ojajZN-4" edge="1">
          <mxGeometry relative="1" as="geometry" />
        </mxCell>
        <mxCell id="XhHmiUflHOxw2_ojajZN-17" value="show molds" style="rounded=0;whiteSpace=wrap;html=1;" parent="XhHmiUflHOxw2_ojajZN-1" vertex="1">
          <mxGeometry x="220" y="170" width="120" height="60" as="geometry" />
        </mxCell>
        <mxCell id="XhHmiUflHOxw2_ojajZN-18" value="no" style="edgeStyle=orthogonalEdgeStyle;rounded=0;orthogonalLoop=1;jettySize=auto;html=1;" parent="XhHmiUflHOxw2_ojajZN-1" source="XhHmiUflHOxw2_ojajZN-20" target="XhHmiUflHOxw2_ojajZN-24" edge="1">
          <mxGeometry relative="1" as="geometry">
            <mxPoint x="320" y="350" as="targetPoint" />
          </mxGeometry>
        </mxCell>
        <mxCell id="XhHmiUflHOxw2_ojajZN-19" value="yes" style="edgeStyle=orthogonalEdgeStyle;rounded=0;orthogonalLoop=1;jettySize=auto;html=1;" parent="XhHmiUflHOxw2_ojajZN-1" source="XhHmiUflHOxw2_ojajZN-20" target="XhHmiUflHOxw2_ojajZN-22" edge="1">
          <mxGeometry relative="1" as="geometry">
            <mxPoint x="480" y="460" as="targetPoint" />
          </mxGeometry>
        </mxCell>
        <mxCell id="XhHmiUflHOxw2_ojajZN-20" value="&lt;font style=&quot;font-size: 10px;&quot;&gt;is unauthorize&lt;/font&gt;" style="rhombus;whiteSpace=wrap;html=1;" parent="XhHmiUflHOxw2_ojajZN-1" vertex="1">
          <mxGeometry x="440" y="310" width="80" height="80" as="geometry" />
        </mxCell>
        <mxCell id="XhHmiUflHOxw2_ojajZN-21" style="edgeStyle=orthogonalEdgeStyle;rounded=0;orthogonalLoop=1;jettySize=auto;html=1;" parent="XhHmiUflHOxw2_ojajZN-1" source="XhHmiUflHOxw2_ojajZN-22" target="XhHmiUflHOxw2_ojajZN-4" edge="1">
          <mxGeometry relative="1" as="geometry">
            <Array as="points">
              <mxPoint x="680" y="420" />
              <mxPoint x="80" y="420" />
            </Array>
          </mxGeometry>
        </mxCell>
        <mxCell id="XhHmiUflHOxw2_ojajZN-22" value="logout" style="shape=process;whiteSpace=wrap;html=1;backgroundOutline=1;" parent="XhHmiUflHOxw2_ojajZN-1" vertex="1">
          <mxGeometry x="620" y="320" width="120" height="60" as="geometry" />
        </mxCell>
        <mxCell id="XhHmiUflHOxw2_ojajZN-23" style="edgeStyle=orthogonalEdgeStyle;rounded=0;orthogonalLoop=1;jettySize=auto;html=1;" parent="XhHmiUflHOxw2_ojajZN-1" source="XhHmiUflHOxw2_ojajZN-24" target="XhHmiUflHOxw2_ojajZN-4" edge="1">
          <mxGeometry relative="1" as="geometry" />
        </mxCell>
        <mxCell id="XhHmiUflHOxw2_ojajZN-24" value="show error" style="rounded=0;whiteSpace=wrap;html=1;" parent="XhHmiUflHOxw2_ojajZN-1" vertex="1">
          <mxGeometry x="220" y="320" width="120" height="60" as="geometry" />
        </mxCell>
      </root>
    </mxGraphModel>
  </diagram>
  <diagram name="read mold" id="wGGgUZe2lC8epBErSkKW">
    <mxGraphModel dx="1042" dy="626" grid="1" gridSize="10" guides="1" tooltips="1" connect="1" arrows="1" fold="1" page="1" pageScale="1" pageWidth="827" pageHeight="1169" math="0" shadow="0">
      <root>
        <mxCell id="_BpClYvlnPE_yRXu2dc3-0" />
        <mxCell id="_BpClYvlnPE_yRXu2dc3-1" parent="_BpClYvlnPE_yRXu2dc3-0" />
        <mxCell id="_BpClYvlnPE_yRXu2dc3-2" value="" style="edgeStyle=orthogonalEdgeStyle;rounded=0;orthogonalLoop=1;jettySize=auto;html=1;" parent="_BpClYvlnPE_yRXu2dc3-1" source="_BpClYvlnPE_yRXu2dc3-3" target="_BpClYvlnPE_yRXu2dc3-6" edge="1">
          <mxGeometry relative="1" as="geometry" />
        </mxCell>
        <mxCell id="_BpClYvlnPE_yRXu2dc3-3" value="start" style="rounded=1;whiteSpace=wrap;html=1;arcSize=50;" parent="_BpClYvlnPE_yRXu2dc3-1" vertex="1">
          <mxGeometry x="20" y="20" width="120" height="60" as="geometry" />
        </mxCell>
        <mxCell id="_BpClYvlnPE_yRXu2dc3-4" value="end" style="rounded=1;whiteSpace=wrap;html=1;arcSize=50;" parent="_BpClYvlnPE_yRXu2dc3-1" vertex="1">
          <mxGeometry x="20" y="160" width="120" height="60" as="geometry" />
        </mxCell>
        <mxCell id="_BpClYvlnPE_yRXu2dc3-5" value="" style="edgeStyle=orthogonalEdgeStyle;rounded=0;orthogonalLoop=1;jettySize=auto;html=1;" parent="_BpClYvlnPE_yRXu2dc3-1" source="_BpClYvlnPE_yRXu2dc3-6" target="_BpClYvlnPE_yRXu2dc3-8" edge="1">
          <mxGeometry relative="1" as="geometry" />
        </mxCell>
        <mxCell id="_BpClYvlnPE_yRXu2dc3-6" value="check auth" style="shape=process;whiteSpace=wrap;html=1;backgroundOutline=1;" parent="_BpClYvlnPE_yRXu2dc3-1" vertex="1">
          <mxGeometry x="200" y="20" width="120" height="60" as="geometry" />
        </mxCell>
        <mxCell id="_BpClYvlnPE_yRXu2dc3-7" value="" style="edgeStyle=orthogonalEdgeStyle;rounded=0;orthogonalLoop=1;jettySize=auto;html=1;" parent="_BpClYvlnPE_yRXu2dc3-1" source="_BpClYvlnPE_yRXu2dc3-8" target="_BpClYvlnPE_yRXu2dc3-11" edge="1">
          <mxGeometry relative="1" as="geometry" />
        </mxCell>
        <mxCell id="_BpClYvlnPE_yRXu2dc3-8" value="use access token to get molds" style="whiteSpace=wrap;html=1;" parent="_BpClYvlnPE_yRXu2dc3-1" vertex="1">
          <mxGeometry x="400" y="20" width="120" height="60" as="geometry" />
        </mxCell>
        <mxCell id="_BpClYvlnPE_yRXu2dc3-9" value="no" style="edgeStyle=orthogonalEdgeStyle;rounded=0;orthogonalLoop=1;jettySize=auto;html=1;" parent="_BpClYvlnPE_yRXu2dc3-1" source="_BpClYvlnPE_yRXu2dc3-11" target="_BpClYvlnPE_yRXu2dc3-13" edge="1">
          <mxGeometry relative="1" as="geometry" />
        </mxCell>
        <mxCell id="_BpClYvlnPE_yRXu2dc3-10" value="yes" style="edgeStyle=orthogonalEdgeStyle;rounded=0;orthogonalLoop=1;jettySize=auto;html=1;" parent="_BpClYvlnPE_yRXu2dc3-1" source="_BpClYvlnPE_yRXu2dc3-11" target="_BpClYvlnPE_yRXu2dc3-15" edge="1">
          <mxGeometry relative="1" as="geometry" />
        </mxCell>
        <mxCell id="_BpClYvlnPE_yRXu2dc3-11" value="is success" style="rhombus;whiteSpace=wrap;html=1;" parent="_BpClYvlnPE_yRXu2dc3-1" vertex="1">
          <mxGeometry x="420" y="150" width="80" height="80" as="geometry" />
        </mxCell>
        <mxCell id="_BpClYvlnPE_yRXu2dc3-12" style="edgeStyle=orthogonalEdgeStyle;rounded=0;orthogonalLoop=1;jettySize=auto;html=1;" parent="_BpClYvlnPE_yRXu2dc3-1" source="_BpClYvlnPE_yRXu2dc3-13" target="_BpClYvlnPE_yRXu2dc3-4" edge="1">
          <mxGeometry relative="1" as="geometry">
            <Array as="points">
              <mxPoint x="620" y="260" />
              <mxPoint x="80" y="260" />
            </Array>
          </mxGeometry>
        </mxCell>
        <mxCell id="_BpClYvlnPE_yRXu2dc3-13" value="show error" style="whiteSpace=wrap;html=1;" parent="_BpClYvlnPE_yRXu2dc3-1" vertex="1">
          <mxGeometry x="560" y="160" width="120" height="60" as="geometry" />
        </mxCell>
        <mxCell id="_BpClYvlnPE_yRXu2dc3-14" style="edgeStyle=orthogonalEdgeStyle;rounded=0;orthogonalLoop=1;jettySize=auto;html=1;" parent="_BpClYvlnPE_yRXu2dc3-1" source="_BpClYvlnPE_yRXu2dc3-15" target="_BpClYvlnPE_yRXu2dc3-4" edge="1">
          <mxGeometry relative="1" as="geometry" />
        </mxCell>
        <mxCell id="_BpClYvlnPE_yRXu2dc3-15" value="show molds" style="whiteSpace=wrap;html=1;" parent="_BpClYvlnPE_yRXu2dc3-1" vertex="1">
          <mxGeometry x="200" y="160" width="120" height="60" as="geometry" />
        </mxCell>
      </root>
    </mxGraphModel>
  </diagram>
  <diagram name="update mold" id="R51m7mTaeBvdWb_c1dK4">
    <mxGraphModel dx="1042" dy="626" grid="1" gridSize="10" guides="1" tooltips="1" connect="1" arrows="1" fold="1" page="1" pageScale="1" pageWidth="827" pageHeight="1169" math="0" shadow="0">
      <root>
        <mxCell id="AvFdiS71eTT8Rk40K7gw-0" />
        <mxCell id="AvFdiS71eTT8Rk40K7gw-1" parent="AvFdiS71eTT8Rk40K7gw-0" />
        <mxCell id="AvFdiS71eTT8Rk40K7gw-2" value="" style="edgeStyle=orthogonalEdgeStyle;rounded=0;orthogonalLoop=1;jettySize=auto;html=1;" parent="AvFdiS71eTT8Rk40K7gw-1" source="AvFdiS71eTT8Rk40K7gw-3" target="AvFdiS71eTT8Rk40K7gw-6" edge="1">
          <mxGeometry relative="1" as="geometry" />
        </mxCell>
        <mxCell id="AvFdiS71eTT8Rk40K7gw-3" value="start" style="rounded=1;whiteSpace=wrap;html=1;arcSize=50;" parent="AvFdiS71eTT8Rk40K7gw-1" vertex="1">
          <mxGeometry x="20" y="30" width="120" height="60" as="geometry" />
        </mxCell>
        <mxCell id="AvFdiS71eTT8Rk40K7gw-4" value="end" style="rounded=1;whiteSpace=wrap;html=1;arcSize=50;" parent="AvFdiS71eTT8Rk40K7gw-1" vertex="1">
          <mxGeometry x="20" y="170" width="120" height="60" as="geometry" />
        </mxCell>
        <mxCell id="AvFdiS71eTT8Rk40K7gw-5" value="" style="edgeStyle=orthogonalEdgeStyle;rounded=0;orthogonalLoop=1;jettySize=auto;html=1;" parent="AvFdiS71eTT8Rk40K7gw-1" source="AvFdiS71eTT8Rk40K7gw-6" target="AvFdiS71eTT8Rk40K7gw-8" edge="1">
          <mxGeometry relative="1" as="geometry" />
        </mxCell>
        <mxCell id="AvFdiS71eTT8Rk40K7gw-6" value="press update mold button" style="whiteSpace=wrap;html=1;rounded=0;arcSize=50;" parent="AvFdiS71eTT8Rk40K7gw-1" vertex="1">
          <mxGeometry x="220" y="30" width="120" height="60" as="geometry" />
        </mxCell>
        <mxCell id="AvFdiS71eTT8Rk40K7gw-7" value="" style="edgeStyle=orthogonalEdgeStyle;rounded=0;orthogonalLoop=1;jettySize=auto;html=1;" parent="AvFdiS71eTT8Rk40K7gw-1" source="AvFdiS71eTT8Rk40K7gw-8" target="AvFdiS71eTT8Rk40K7gw-10" edge="1">
          <mxGeometry relative="1" as="geometry" />
        </mxCell>
        <mxCell id="AvFdiS71eTT8Rk40K7gw-8" value="update mold detail" style="whiteSpace=wrap;html=1;rounded=0;arcSize=50;" parent="AvFdiS71eTT8Rk40K7gw-1" vertex="1">
          <mxGeometry x="420" y="30" width="120" height="60" as="geometry" />
        </mxCell>
        <mxCell id="AvFdiS71eTT8Rk40K7gw-9" value="" style="edgeStyle=orthogonalEdgeStyle;rounded=0;orthogonalLoop=1;jettySize=auto;html=1;" parent="AvFdiS71eTT8Rk40K7gw-1" source="AvFdiS71eTT8Rk40K7gw-10" target="AvFdiS71eTT8Rk40K7gw-12" edge="1">
          <mxGeometry relative="1" as="geometry" />
        </mxCell>
        <mxCell id="AvFdiS71eTT8Rk40K7gw-10" value="check auth" style="shape=process;whiteSpace=wrap;html=1;backgroundOutline=1;" parent="AvFdiS71eTT8Rk40K7gw-1" vertex="1">
          <mxGeometry x="620" y="30" width="120" height="60" as="geometry" />
        </mxCell>
        <mxCell id="AvFdiS71eTT8Rk40K7gw-11" value="" style="edgeStyle=orthogonalEdgeStyle;rounded=0;orthogonalLoop=1;jettySize=auto;html=1;" parent="AvFdiS71eTT8Rk40K7gw-1" source="AvFdiS71eTT8Rk40K7gw-12" target="AvFdiS71eTT8Rk40K7gw-15" edge="1">
          <mxGeometry relative="1" as="geometry" />
        </mxCell>
        <mxCell id="AvFdiS71eTT8Rk40K7gw-12" value="use access token to update mold" style="whiteSpace=wrap;html=1;" parent="AvFdiS71eTT8Rk40K7gw-1" vertex="1">
          <mxGeometry x="620" y="170" width="120" height="60" as="geometry" />
        </mxCell>
        <mxCell id="AvFdiS71eTT8Rk40K7gw-13" value="yes" style="edgeStyle=orthogonalEdgeStyle;rounded=0;orthogonalLoop=1;jettySize=auto;html=1;" parent="AvFdiS71eTT8Rk40K7gw-1" source="AvFdiS71eTT8Rk40K7gw-15" target="AvFdiS71eTT8Rk40K7gw-17" edge="1">
          <mxGeometry relative="1" as="geometry" />
        </mxCell>
        <mxCell id="AvFdiS71eTT8Rk40K7gw-14" value="no" style="edgeStyle=orthogonalEdgeStyle;rounded=0;orthogonalLoop=1;jettySize=auto;html=1;" parent="AvFdiS71eTT8Rk40K7gw-1" source="AvFdiS71eTT8Rk40K7gw-15" target="AvFdiS71eTT8Rk40K7gw-20" edge="1">
          <mxGeometry relative="1" as="geometry">
            <mxPoint x="480" y="310" as="targetPoint" />
          </mxGeometry>
        </mxCell>
        <mxCell id="AvFdiS71eTT8Rk40K7gw-15" value="success" style="rhombus;whiteSpace=wrap;html=1;" parent="AvFdiS71eTT8Rk40K7gw-1" vertex="1">
          <mxGeometry x="440" y="160" width="80" height="80" as="geometry" />
        </mxCell>
        <mxCell id="AvFdiS71eTT8Rk40K7gw-16" style="edgeStyle=orthogonalEdgeStyle;rounded=0;orthogonalLoop=1;jettySize=auto;html=1;" parent="AvFdiS71eTT8Rk40K7gw-1" source="AvFdiS71eTT8Rk40K7gw-17" target="AvFdiS71eTT8Rk40K7gw-4" edge="1">
          <mxGeometry relative="1" as="geometry" />
        </mxCell>
        <mxCell id="AvFdiS71eTT8Rk40K7gw-17" value="show molds" style="rounded=0;whiteSpace=wrap;html=1;" parent="AvFdiS71eTT8Rk40K7gw-1" vertex="1">
          <mxGeometry x="220" y="170" width="120" height="60" as="geometry" />
        </mxCell>
        <mxCell id="AvFdiS71eTT8Rk40K7gw-18" value="no" style="edgeStyle=orthogonalEdgeStyle;rounded=0;orthogonalLoop=1;jettySize=auto;html=1;" parent="AvFdiS71eTT8Rk40K7gw-1" source="AvFdiS71eTT8Rk40K7gw-20" target="AvFdiS71eTT8Rk40K7gw-24" edge="1">
          <mxGeometry relative="1" as="geometry">
            <mxPoint x="320" y="350" as="targetPoint" />
          </mxGeometry>
        </mxCell>
        <mxCell id="AvFdiS71eTT8Rk40K7gw-19" value="yes" style="edgeStyle=orthogonalEdgeStyle;rounded=0;orthogonalLoop=1;jettySize=auto;html=1;" parent="AvFdiS71eTT8Rk40K7gw-1" source="AvFdiS71eTT8Rk40K7gw-20" target="AvFdiS71eTT8Rk40K7gw-22" edge="1">
          <mxGeometry relative="1" as="geometry">
            <mxPoint x="480" y="460" as="targetPoint" />
          </mxGeometry>
        </mxCell>
        <mxCell id="AvFdiS71eTT8Rk40K7gw-20" value="&lt;font style=&quot;font-size: 10px;&quot;&gt;is unauthorize&lt;/font&gt;" style="rhombus;whiteSpace=wrap;html=1;" parent="AvFdiS71eTT8Rk40K7gw-1" vertex="1">
          <mxGeometry x="440" y="310" width="80" height="80" as="geometry" />
        </mxCell>
        <mxCell id="AvFdiS71eTT8Rk40K7gw-21" style="edgeStyle=orthogonalEdgeStyle;rounded=0;orthogonalLoop=1;jettySize=auto;html=1;" parent="AvFdiS71eTT8Rk40K7gw-1" source="AvFdiS71eTT8Rk40K7gw-22" target="AvFdiS71eTT8Rk40K7gw-4" edge="1">
          <mxGeometry relative="1" as="geometry">
            <Array as="points">
              <mxPoint x="680" y="420" />
              <mxPoint x="80" y="420" />
            </Array>
          </mxGeometry>
        </mxCell>
        <mxCell id="AvFdiS71eTT8Rk40K7gw-22" value="logout" style="shape=process;whiteSpace=wrap;html=1;backgroundOutline=1;" parent="AvFdiS71eTT8Rk40K7gw-1" vertex="1">
          <mxGeometry x="620" y="320" width="120" height="60" as="geometry" />
        </mxCell>
        <mxCell id="AvFdiS71eTT8Rk40K7gw-23" style="edgeStyle=orthogonalEdgeStyle;rounded=0;orthogonalLoop=1;jettySize=auto;html=1;" parent="AvFdiS71eTT8Rk40K7gw-1" source="AvFdiS71eTT8Rk40K7gw-24" target="AvFdiS71eTT8Rk40K7gw-4" edge="1">
          <mxGeometry relative="1" as="geometry" />
        </mxCell>
        <mxCell id="AvFdiS71eTT8Rk40K7gw-24" value="show error" style="rounded=0;whiteSpace=wrap;html=1;" parent="AvFdiS71eTT8Rk40K7gw-1" vertex="1">
          <mxGeometry x="220" y="320" width="120" height="60" as="geometry" />
        </mxCell>
      </root>
    </mxGraphModel>
  </diagram>
  <diagram name="delete mold" id="BO1FANsMqSMiUf1Cz9Kc">
    <mxGraphModel dx="1042" dy="626" grid="1" gridSize="10" guides="1" tooltips="1" connect="1" arrows="1" fold="1" page="1" pageScale="1" pageWidth="827" pageHeight="1169" math="0" shadow="0">
      <root>
        <mxCell id="RvTqQkzqZXYG2zMOyX2--0" />
        <mxCell id="RvTqQkzqZXYG2zMOyX2--1" parent="RvTqQkzqZXYG2zMOyX2--0" />
        <mxCell id="RvTqQkzqZXYG2zMOyX2--2" value="" style="edgeStyle=orthogonalEdgeStyle;rounded=0;orthogonalLoop=1;jettySize=auto;html=1;" parent="RvTqQkzqZXYG2zMOyX2--1" source="RvTqQkzqZXYG2zMOyX2--3" target="RvTqQkzqZXYG2zMOyX2--6" edge="1">
          <mxGeometry relative="1" as="geometry" />
        </mxCell>
        <mxCell id="RvTqQkzqZXYG2zMOyX2--3" value="start" style="rounded=1;whiteSpace=wrap;html=1;arcSize=50;" parent="RvTqQkzqZXYG2zMOyX2--1" vertex="1">
          <mxGeometry x="20" y="30" width="120" height="60" as="geometry" />
        </mxCell>
        <mxCell id="RvTqQkzqZXYG2zMOyX2--4" value="end" style="rounded=1;whiteSpace=wrap;html=1;arcSize=50;" parent="RvTqQkzqZXYG2zMOyX2--1" vertex="1">
          <mxGeometry x="20" y="170" width="120" height="60" as="geometry" />
        </mxCell>
        <mxCell id="RvTqQkzqZXYG2zMOyX2--5" value="" style="edgeStyle=orthogonalEdgeStyle;rounded=0;orthogonalLoop=1;jettySize=auto;html=1;" parent="RvTqQkzqZXYG2zMOyX2--1" source="RvTqQkzqZXYG2zMOyX2--6" target="RvTqQkzqZXYG2zMOyX2--8" edge="1">
          <mxGeometry relative="1" as="geometry" />
        </mxCell>
        <mxCell id="RvTqQkzqZXYG2zMOyX2--6" value="press update mold button" style="whiteSpace=wrap;html=1;rounded=0;arcSize=50;" parent="RvTqQkzqZXYG2zMOyX2--1" vertex="1">
          <mxGeometry x="220" y="30" width="120" height="60" as="geometry" />
        </mxCell>
        <mxCell id="RvTqQkzqZXYG2zMOyX2--7" value="" style="edgeStyle=orthogonalEdgeStyle;rounded=0;orthogonalLoop=1;jettySize=auto;html=1;" parent="RvTqQkzqZXYG2zMOyX2--1" source="RvTqQkzqZXYG2zMOyX2--8" target="RvTqQkzqZXYG2zMOyX2--10" edge="1">
          <mxGeometry relative="1" as="geometry" />
        </mxCell>
        <mxCell id="RvTqQkzqZXYG2zMOyX2--8" value="press delete mold button" style="whiteSpace=wrap;html=1;rounded=0;arcSize=50;" parent="RvTqQkzqZXYG2zMOyX2--1" vertex="1">
          <mxGeometry x="420" y="30" width="120" height="60" as="geometry" />
        </mxCell>
        <mxCell id="RvTqQkzqZXYG2zMOyX2--9" value="" style="edgeStyle=orthogonalEdgeStyle;rounded=0;orthogonalLoop=1;jettySize=auto;html=1;" parent="RvTqQkzqZXYG2zMOyX2--1" source="RvTqQkzqZXYG2zMOyX2--10" target="RvTqQkzqZXYG2zMOyX2--12" edge="1">
          <mxGeometry relative="1" as="geometry" />
        </mxCell>
        <mxCell id="RvTqQkzqZXYG2zMOyX2--10" value="check auth" style="shape=process;whiteSpace=wrap;html=1;backgroundOutline=1;" parent="RvTqQkzqZXYG2zMOyX2--1" vertex="1">
          <mxGeometry x="620" y="30" width="120" height="60" as="geometry" />
        </mxCell>
        <mxCell id="RvTqQkzqZXYG2zMOyX2--11" value="" style="edgeStyle=orthogonalEdgeStyle;rounded=0;orthogonalLoop=1;jettySize=auto;html=1;" parent="RvTqQkzqZXYG2zMOyX2--1" source="RvTqQkzqZXYG2zMOyX2--12" target="RvTqQkzqZXYG2zMOyX2--15" edge="1">
          <mxGeometry relative="1" as="geometry" />
        </mxCell>
        <mxCell id="RvTqQkzqZXYG2zMOyX2--12" value="use access token to delete mold" style="whiteSpace=wrap;html=1;" parent="RvTqQkzqZXYG2zMOyX2--1" vertex="1">
          <mxGeometry x="620" y="170" width="120" height="60" as="geometry" />
        </mxCell>
        <mxCell id="RvTqQkzqZXYG2zMOyX2--13" value="yes" style="edgeStyle=orthogonalEdgeStyle;rounded=0;orthogonalLoop=1;jettySize=auto;html=1;" parent="RvTqQkzqZXYG2zMOyX2--1" source="RvTqQkzqZXYG2zMOyX2--15" target="RvTqQkzqZXYG2zMOyX2--17" edge="1">
          <mxGeometry relative="1" as="geometry" />
        </mxCell>
        <mxCell id="RvTqQkzqZXYG2zMOyX2--14" value="no" style="edgeStyle=orthogonalEdgeStyle;rounded=0;orthogonalLoop=1;jettySize=auto;html=1;" parent="RvTqQkzqZXYG2zMOyX2--1" source="RvTqQkzqZXYG2zMOyX2--15" target="RvTqQkzqZXYG2zMOyX2--20" edge="1">
          <mxGeometry relative="1" as="geometry">
            <mxPoint x="480" y="310" as="targetPoint" />
          </mxGeometry>
        </mxCell>
        <mxCell id="RvTqQkzqZXYG2zMOyX2--15" value="success" style="rhombus;whiteSpace=wrap;html=1;" parent="RvTqQkzqZXYG2zMOyX2--1" vertex="1">
          <mxGeometry x="440" y="160" width="80" height="80" as="geometry" />
        </mxCell>
        <mxCell id="RvTqQkzqZXYG2zMOyX2--16" style="edgeStyle=orthogonalEdgeStyle;rounded=0;orthogonalLoop=1;jettySize=auto;html=1;" parent="RvTqQkzqZXYG2zMOyX2--1" source="RvTqQkzqZXYG2zMOyX2--17" target="RvTqQkzqZXYG2zMOyX2--4" edge="1">
          <mxGeometry relative="1" as="geometry" />
        </mxCell>
        <mxCell id="RvTqQkzqZXYG2zMOyX2--17" value="show molds" style="rounded=0;whiteSpace=wrap;html=1;" parent="RvTqQkzqZXYG2zMOyX2--1" vertex="1">
          <mxGeometry x="220" y="170" width="120" height="60" as="geometry" />
        </mxCell>
        <mxCell id="RvTqQkzqZXYG2zMOyX2--18" value="no" style="edgeStyle=orthogonalEdgeStyle;rounded=0;orthogonalLoop=1;jettySize=auto;html=1;" parent="RvTqQkzqZXYG2zMOyX2--1" source="RvTqQkzqZXYG2zMOyX2--20" target="RvTqQkzqZXYG2zMOyX2--24" edge="1">
          <mxGeometry relative="1" as="geometry">
            <mxPoint x="320" y="350" as="targetPoint" />
          </mxGeometry>
        </mxCell>
        <mxCell id="RvTqQkzqZXYG2zMOyX2--19" value="yes" style="edgeStyle=orthogonalEdgeStyle;rounded=0;orthogonalLoop=1;jettySize=auto;html=1;" parent="RvTqQkzqZXYG2zMOyX2--1" source="RvTqQkzqZXYG2zMOyX2--20" target="RvTqQkzqZXYG2zMOyX2--22" edge="1">
          <mxGeometry relative="1" as="geometry">
            <mxPoint x="480" y="460" as="targetPoint" />
          </mxGeometry>
        </mxCell>
        <mxCell id="RvTqQkzqZXYG2zMOyX2--20" value="&lt;font style=&quot;font-size: 10px;&quot;&gt;is unauthorize&lt;/font&gt;" style="rhombus;whiteSpace=wrap;html=1;" parent="RvTqQkzqZXYG2zMOyX2--1" vertex="1">
          <mxGeometry x="440" y="310" width="80" height="80" as="geometry" />
        </mxCell>
        <mxCell id="RvTqQkzqZXYG2zMOyX2--21" style="edgeStyle=orthogonalEdgeStyle;rounded=0;orthogonalLoop=1;jettySize=auto;html=1;" parent="RvTqQkzqZXYG2zMOyX2--1" source="RvTqQkzqZXYG2zMOyX2--22" target="RvTqQkzqZXYG2zMOyX2--4" edge="1">
          <mxGeometry relative="1" as="geometry">
            <Array as="points">
              <mxPoint x="680" y="420" />
              <mxPoint x="80" y="420" />
            </Array>
          </mxGeometry>
        </mxCell>
        <mxCell id="RvTqQkzqZXYG2zMOyX2--22" value="logout" style="shape=process;whiteSpace=wrap;html=1;backgroundOutline=1;" parent="RvTqQkzqZXYG2zMOyX2--1" vertex="1">
          <mxGeometry x="620" y="320" width="120" height="60" as="geometry" />
        </mxCell>
        <mxCell id="RvTqQkzqZXYG2zMOyX2--23" style="edgeStyle=orthogonalEdgeStyle;rounded=0;orthogonalLoop=1;jettySize=auto;html=1;" parent="RvTqQkzqZXYG2zMOyX2--1" source="RvTqQkzqZXYG2zMOyX2--24" target="RvTqQkzqZXYG2zMOyX2--4" edge="1">
          <mxGeometry relative="1" as="geometry" />
        </mxCell>
        <mxCell id="RvTqQkzqZXYG2zMOyX2--24" value="show error" style="rounded=0;whiteSpace=wrap;html=1;" parent="RvTqQkzqZXYG2zMOyX2--1" vertex="1">
          <mxGeometry x="220" y="320" width="120" height="60" as="geometry" />
        </mxCell>
      </root>
    </mxGraphModel>
  </diagram>
</mxfile>
